<?xml version="1.0" standalone="no"?>
<!DOCTYPE svg PUBLIC "-//W3C//DTD SVG 20010904//EN"
 "http://www.w3.org/TR/2001/REC-SVG-20010904/DTD/svg10.dtd">
<svg version="1.0" xmlns="http://www.w3.org/2000/svg"
 width="300.000000pt" height="300.000000pt" viewBox="0 0 300.000000 300.000000"
 preserveAspectRatio="xMidYMid meet">

<g transform="translate(0.000000,300.000000) scale(0.100000,-0.100000)"
fill="#000000" stroke="none">
<path d="M0 1500 l0 -1500 1500 0 1500 0 0 1500 0 1500 -1500 0 -1500 0 0
-1500z m2910 0 l0 -1410 -1410 0 -1410 0 0 1410 0 1410 1410 0 1410 0 0 -1410z"/>
<path d="M640 2125 c-99 -28 -179 -85 -230 -165 -107 -167 -88 -405 42 -515
48 -41 120 -70 249 -100 244 -57 277 -72 309 -136 30 -58 27 -151 -6 -218 -50
-100 -172 -153 -303 -132 -151 24 -259 134 -325 328 -12 34 -25 63 -31 63 -15
0 -13 -412 2 -417 7 -3 29 21 49 51 20 31 38 56 40 56 2 0 24 -15 49 -34 153
-117 410 -112 572 11 87 66 143 200 143 342 0 180 -66 298 -207 370 -24 12
-102 35 -175 51 -146 33 -212 61 -242 103 -17 23 -21 44 -21 111 0 73 3 87 28
124 45 69 132 100 229 82 128 -25 205 -101 258 -254 32 -95 40 -71 40 118 0
109 -4 176 -10 176 -5 0 -22 -18 -36 -40 -15 -22 -28 -40 -29 -40 -2 0 -37 16
-80 36 -67 33 -87 37 -168 40 -62 3 -110 -1 -147 -11z"/>
<path d="M1280 2105 c0 -11 12 -15 50 -15 l50 0 0 -578 c0 -639 3 -610 -65
-632 -19 -6 -35 -18 -35 -26 0 -11 23 -14 120 -14 97 0 120 3 120 14 0 8 -16
20 -35 26 -68 22 -65 -4 -65 605 l1 550 208 -595 208 -595 28 0 28 0 208 585
c115 322 210 590 213 595 2 6 5 -252 5 -572 l1 -583 -50 0 c-38 0 -50 -4 -50
-15 0 -13 35 -15 255 -15 220 0 255 2 255 15 0 11 -12 15 -50 15 l-50 0 0 610
0 610 50 0 c38 0 50 4 50 15 0 13 -28 15 -212 13 l-213 -3 -150 -417 c-82
-229 -152 -419 -155 -421 -3 -3 -74 186 -159 419 l-153 424 -204 0 c-175 0
-204 -2 -204 -15z"/>
</g>
</svg>
